# xmcd
# 
# Track frame offsets:
#     182
#     25220
#     41492
#     59530
#     70055
#     88297
#     106687
#     123087
#     133880
#     152507
#     166182
#     184970
#     200607
# 
# Disc length: 2920
# 
# Revision: 1
# Processed by: cddbd v1.5.2PL0 Copyright (c) Steve Scherf et al.
# Submitted via: BonkEnc v1.0.8
# 
DISCID=af0b660d
DTITLE=Various Artist - ITALIA de ayer y de hoy
DYEAR=0
DGENRE=Romántico
TTITLE0=Benvenuti al Paradiso - Antonello Venditti
TTITLE1=Nel Blu Dipinto Di Blu - Domenico Modugno
TTITLE2=Io Vorrei - Sandro Giacobe
TTITLE3=24 Mila Baci - Adriano Celentano
TTITLE4=Camminando - Irene Fargo
TTITLE5=E Ti Amavo - Nicola Di Bari
TTITLE6=La Valigia - Iva Zanicchi
TTITLE7=Ho Capito Che Ti Amo - Ligui Tenco
TTITLE8=Per Una Come Me - Joe Souillo
TTITLE9=Il Cielo In Una Stanza - Mina
TTITLE10=Un Grande Amore - Pino D-Angio
TTITLE11=Roberta - Peppino Di Caprio
TTITLE12=Kajal - Iva Zanicchi
EXTD=
EXTT0=
EXTT1=
EXTT2=
EXTT3=
EXTT4=
EXTT5=
EXTT6=
EXTT7=
EXTT8=
EXTT9=
EXTT10=
EXTT11=
EXTT12=
PLAYORDER=
